 <svg  version="1.0" xmlns="http://www.w3.org/2000/svg"  width="1350.000000pt" height="735.000000pt" viewBox="0 0 1350.000000 735.000000"  preserveAspectRatio="xMidYMid meet">  <g transform="translate(0.000000,735.000000) scale(0.100000,-0.100000)" fill="#2563eb" stroke="none"> <path d="M2636 4981 c-46 -16 -75 -42 -118 -104 -13 -19 -26 -25 -55 -25 -31 0 -43 -6 -70 -38 -29 -34 -33 -46 -33 -98 0 -50 4 -64 30 -96 33 -41 71 -55 176 -64 70 -6 74 -1 66 67 -4 32 -9 39 -33 44 -16 3 -29 8 -29 12 0 3 18 26 40 51 23 24 43 54 46 67 10 39 34 26 82 -45 13 -20 31 -41 38 -45 17 -10 18 -37 2 -38 -7 -1 -22 -2 -33 -3 -17 -1 -20 -8 -20 -56 l0 -55 100 4 c111 4 137 15 174 75 26 41 26 74 4 120 -21 39 -59 66 -97 66 -22 0 -30 9 -50 53 -22 49 -56 84 -101 101 -53 21 -72 22 -119 7z"/> <path d="M3680 4944 c-67 -37 -133 -112 -159 -180 -21 -57 -21 -71 -19 -379 l3 -320 40 -8 c22 -4 51 -9 65 -10 l25 -2 2 255 c3 390 5 412 35 458 48 71 22 69 706 68 l614 -1 33 -37 c19 -20 39 -53 46 -75 10 -30 14 -256 17 -1025 3 -963 2 -988 -17 -1025 -10 -21 -35 -53 -55 -72 l-35 -34 -383 -1 c-211 -1 -491 1 -623 4 -220 5 -242 7 -266 25 -38 28 -57 69 -69 149 -10 63 -9 108 6 314 3 52 1 72 -7 72 -14 0 -36 -26 -49 -58 -13 -30 -26 -21 -33 20 -13 82 -31 129 -46 126 -14 -3 -15 -34 -13 -263 3 -285 9 -320 64 -402 27 -40 94 -93 117 -93 5 0 14 -7 21 -15 11 -13 97 -15 661 -15 427 0 650 3 654 10 4 6 22 17 42 25 35 15 123 99 123 118 0 6 8 19 18 30 16 18 17 70 19 756 2 674 -1 780 -22 759 -3 -3 -8 -118 -11 -254 -3 -137 -9 -298 -12 -359 l-7 -110 -7 165 c-4 91 -7 329 -8 530 -4 596 -4 621 -24 659 -22 42 -38 58 -100 102 l-48 34 -359 2 c-198 1 -430 7 -516 13 -87 5 -176 10 -197 10 -24 0 -36 4 -30 9 11 10 980 32 1069 24 33 -3 65 -9 70 -13 16 -13 54 -16 57 -5 2 6 -13 18 -32 27 -32 17 -85 18 -675 18 l-640 -1 -45 -25z"/> <path d="M2087 4943 c-13 -12 -7 -33 13 -50 25 -22 25 -28 -1 -54 -43 -43 2 -80 47 -38 l24 23 21 -23 c11 -12 28 -21 37 -19 25 5 27 45 3 60 -26 16 -26 29 0 51 11 10 19 26 17 35 -5 26 -44 27 -62 1 l-16 -23 -20 22 c-20 21 -50 29 -63 15z"/> <path d="M5150 4837 c0 -7 7 -25 15 -40 8 -15 17 -43 21 -62 3 -19 10 -35 15 -35 15 0 10 68 -8 104 -18 36 -43 55 -43 33z"/> <path d="M1704 4793 c-3 -10 -11 -31 -19 -48 -43 -98 -56 -127 -85 -190 -18 -38 -46 -98 -62 -133 l-31 -63 23 -24 c13 -14 31 -25 41 -25 10 0 24 -7 32 -15 8 -7 26 -17 41 -21 23 -5 26 -3 26 18 0 13 -9 49 -20 81 -31 89 -25 144 19 153 14 3 33 9 41 13 9 5 30 12 49 16 18 4 44 13 59 21 15 8 35 14 45 14 9 0 25 4 35 9 9 5 44 14 77 20 32 6 63 15 68 20 13 13 0 31 -21 31 -10 0 -44 14 -75 30 -32 17 -64 30 -71 30 -8 0 -19 7 -26 15 -7 8 -18 15 -26 15 -7 0 -30 11 -50 25 -43 29 -63 32 -70 8z"/> <path d="M3171 4703 c-7 -13 -5 -23 7 -37 13 -14 14 -20 5 -23 -13 -5 -18 -45 -7 -56 3 -3 15 -1 25 6 14 9 26 9 48 0 17 -6 32 -8 35 -5 13 12 5 50 -11 57 -17 6 -17 7 0 19 9 7 17 21 17 31 0 14 -6 16 -35 11 -19 -4 -44 -2 -54 4 -16 8 -22 6 -30 -7z"/> <path d="M2120 4623 c-25 -8 -54 -19 -65 -25 -11 -6 -33 -15 -50 -19 -16 -4 -43 -12 -60 -17 -16 -6 -57 -18 -90 -27 -33 -9 -73 -23 -90 -31 -16 -7 -43 -16 -58 -20 -27 -6 -28 -9 -23 -43 12 -83 42 -221 57 -266 17 -49 40 -137 47 -180 10 -60 31 -60 187 5 46 20 66 20 99 5 37 -18 66 -13 141 21 17 7 49 17 72 20 23 4 50 15 59 25 15 17 15 23 -4 86 -10 37 -25 102 -31 143 -7 41 -17 91 -23 110 -7 19 -15 55 -19 80 -4 25 -14 68 -21 95 -13 47 -16 50 -49 51 -19 1 -54 -5 -79 -13z m66 -51 c6 -4 16 -32 22 -62 7 -30 19 -80 28 -110 21 -71 28 -110 20 -110 -10 0 -48 24 -68 43 -26 25 -64 22 -71 -5 -16 -68 -36 -103 -59 -106 -14 -2 -31 4 -38 12 -7 9 -18 16 -25 16 -6 0 -25 13 -41 30 -35 36 -70 39 -77 8 -10 -44 -47 -132 -61 -147 -13 -12 -16 -10 -21 15 -16 83 -39 174 -52 210 -23 65 -16 88 32 96 55 9 124 27 160 43 51 21 132 45 156 45 13 1 35 7 49 15 29 17 32 17 46 7z m72 -368 c2 -14 -8 -28 -32 -45 -20 -13 -40 -37 -46 -52 -8 -24 -13 -27 -32 -22 -13 4 -24 8 -25 9 -1 1 -3 21 -4 44 -3 49 13 70 62 82 51 12 74 8 77 -16z m-249 -66 c36 2 48 -2 68 -24 33 -36 19 -44 -83 -44 -90 0 -119 15 -107 58 5 20 9 22 42 15 20 -4 56 -6 80 -5z"/> <path d="M1988 4459 c-38 -22 -15 -108 30 -109 20 0 52 38 52 64 0 45 -42 69 -82 45z"/> <path d="M2996 4459 c-42 -50 -32 -103 34 -169 35 -35 93 -70 118 -70 24 0 40 -36 23 -53 -7 -7 -17 -7 -33 0 -13 6 -44 20 -70 32 -26 12 -67 44 -92 72 -43 48 -45 54 -48 117 -2 37 -7 66 -13 66 -12 -1 -62 -96 -73 -139 -9 -35 -50 -46 -72 -21 -7 9 -20 16 -29 16 -9 0 -70 27 -136 59 -182 91 -172 89 -194 38 -58 -128 -57 -123 -32 -172 12 -25 26 -47 30 -50 5 -2 9 -32 10 -67 1 -74 -20 -105 -82 -115 -34 -5 -38 -8 -24 -18 22 -16 22 -52 -1 -64 -23 -12 -39 -2 -43 28 -6 39 -25 35 -48 -11 -12 -24 -26 -50 -30 -58 -27 -52 -31 -62 -26 -70 14 -22 61 14 71 54 8 33 37 31 42 -2 3 -16 10 -22 28 -22 23 0 50 -10 151 -56 38 -17 85 -18 101 -2 7 7 12 27 12 45 0 27 5 34 26 39 14 4 36 2 49 -4 33 -15 23 -41 -39 -107 -67 -71 -90 -72 -218 -4 -49 26 -114 34 -164 20 -54 -14 -118 -71 -145 -129 -40 -86 -71 -160 -94 -227 -9 -27 -21 -59 -26 -70 -5 -11 -13 -31 -19 -45 -5 -14 -14 -32 -18 -40 -32 -58 -52 -101 -52 -114 0 -24 20 -29 39 -12 14 12 29 15 58 10 26 -4 52 -1 77 10 21 9 46 16 55 16 9 0 28 6 43 14 15 8 40 17 57 21 17 4 33 11 36 16 4 5 16 9 28 9 12 0 37 9 55 20 29 18 31 22 20 40 -9 14 -10 22 -1 31 14 14 53 2 53 -17 0 -19 24 -18 41 4 8 9 23 42 34 72 31 91 63 144 105 173 32 22 51 21 108 -4 71 -33 119 -35 171 -7 59 31 71 51 47 77 -21 23 -14 41 16 41 11 0 22 -8 25 -20 3 -13 14 -20 29 -20 13 0 24 4 24 8 0 5 16 20 35 33 37 27 67 67 104 139 13 25 29 56 37 70 26 46 13 80 -23 61 -51 -28 -89 -41 -116 -41 -32 0 -91 16 -117 31 -8 5 -27 14 -42 20 -16 6 -28 14 -28 18 0 4 -20 18 -45 30 -43 21 -56 43 -36 56 5 3 13 20 17 37 3 18 10 39 15 48 4 8 20 40 34 71 14 31 34 64 45 74 18 17 20 17 26 1 4 -10 2 -22 -5 -29 -6 -6 -11 -25 -11 -43 0 -17 -6 -37 -14 -43 -17 -14 -38 -94 -30 -115 3 -8 33 -31 66 -51 59 -35 63 -36 147 -33 74 3 86 6 89 21 2 11 -4 27 -15 38 -10 10 -26 28 -37 38 -11 12 -16 27 -12 36 7 18 21 17 135 -12 l63 -17 19 25 c10 13 32 51 48 84 27 54 29 64 20 106 -12 55 -86 138 -151 170 -24 11 -51 25 -60 30 -10 5 -42 9 -72 9 -48 0 -57 -3 -80 -31z m189 -48 c72 -39 119 -94 130 -152 5 -30 2 -41 -20 -67 -16 -20 -36 -32 -51 -32 -29 0 -31 19 -4 53 30 38 26 85 -12 124 -18 18 -39 33 -49 33 -9 0 -22 7 -29 15 -16 19 -54 19 -69 1 -30 -36 48 -99 89 -74 14 9 22 9 34 -1 23 -19 20 -58 -4 -66 -30 -10 -123 37 -154 77 -30 41 -35 92 -8 108 22 13 108 2 147 -19z m-698 -65 c-8 -20 -36 -21 -43 -1 -4 8 0 22 7 31 11 13 14 13 27 0 8 -8 12 -22 9 -30z m32 -86 c6 0 50 -20 98 -45 48 -25 95 -45 104 -45 29 0 44 -27 31 -55 -13 -28 -49 -34 -58 -10 -8 20 -207 115 -242 115 -11 0 -30 9 -43 19 l-24 19 24 26 23 25 39 -25 c21 -13 43 -24 48 -24z m276 -20 c8 -14 -13 -50 -30 -50 -15 0 -30 35 -20 50 8 13 42 13 50 0z m219 -66 c18 -7 22 -49 6 -59 -5 -3 -10 -17 -10 -30 0 -32 -10 -36 -48 -18 -37 18 -42 50 -14 88 17 25 37 30 66 19z m-407 -75 c23 -19 4 -100 -31 -134 -17 -16 -37 -28 -44 -27 -19 4 -26 -27 -9 -46 10 -12 12 -24 6 -39 -10 -29 -32 -29 -50 -2 -12 17 -18 19 -42 10 -23 -9 -29 -8 -34 5 -3 9 -1 19 4 23 6 3 16 17 23 30 9 18 9 25 0 31 -9 6 -7 13 9 29 11 11 21 32 21 46 0 15 6 38 14 54 13 25 20 28 67 29 29 0 59 -4 66 -9z m97 -45 c20 -8 21 -53 2 -60 -21 -8 -56 14 -56 35 0 30 19 38 54 25z m-33 -94 c23 -13 24 -28 2 -52 -22 -25 -41 -23 -55 7 -8 19 -8 28 2 40 15 18 24 19 51 5z m120 -10 c24 -13 25 -56 2 -62 -35 -8 -53 3 -53 31 0 42 14 50 51 31z m99 -84 c6 -8 27 -20 46 -26 19 -6 34 -18 34 -26 0 -29 -92 -113 -154 -143 -34 -16 -68 -36 -75 -45 -18 -22 -41 -20 -41 2 0 26 30 84 51 100 10 7 35 44 56 82 38 70 59 84 83 56z m215 -11 c0 -14 -8 -21 -27 -23 -30 -4 -38 14 -16 36 18 18 43 10 43 -13z m-335 0 c10 -13 10 -19 -5 -35 -31 -34 -55 -20 -55 31 0 24 41 26 60 4z m289 -59 c9 -11 9 -19 -1 -35 -15 -25 -41 -24 -46 2 -8 42 23 63 47 33z m-341 -18 c13 -13 16 -44 4 -51 -4 -3 -19 -3 -35 0 -20 4 -27 11 -27 27 0 13 3 26 7 29 10 11 38 8 51 -5z m-440 -59 c2 -9 -4 -19 -12 -22 -19 -8 -51 17 -42 32 11 17 50 9 54 -10z m390 -23 c7 -33 -31 -46 -63 -22 -17 12 -17 16 -5 30 18 22 64 17 68 -8z m350 2 c3 -14 -3 -18 -27 -18 -31 0 -47 13 -36 31 11 16 59 6 63 -13z m-819 -22 c8 -10 9 -16 1 -21 -15 -9 -12 -25 6 -25 14 0 89 -30 126 -50 10 -6 23 -10 30 -10 6 0 19 -7 28 -15 14 -13 22 -14 43 -4 38 17 59 6 51 -28 -7 -29 -31 -63 -45 -63 -4 0 -27 13 -51 29 -24 16 -58 32 -75 36 -18 3 -33 11 -33 16 0 5 -8 9 -18 9 -10 0 -27 6 -37 14 -11 8 -41 18 -65 23 -54 10 -61 29 -25 72 29 34 46 39 64 17z m351 -70 c0 -13 -6 -29 -14 -35 -11 -10 -19 -7 -35 10 -32 34 -25 46 27 48 17 1 22 -5 22 -23z m292 -11 c4 -24 -27 -33 -36 -9 -7 19 13 49 25 37 4 -4 9 -17 11 -28z m-717 -70 c0 -25 -4 -30 -24 -30 -32 0 -49 28 -31 50 7 9 23 15 34 13 16 -2 21 -10 21 -33z m119 -60 c69 -21 81 -33 59 -57 -13 -14 -24 -17 -47 -12 -25 5 -29 4 -18 -7 25 -27 14 -47 -30 -54 -24 -4 -49 -12 -55 -17 -15 -12 -43 6 -43 28 0 8 19 41 43 73 23 33 42 60 42 60 0 1 22 -6 49 -14z m-155 -23 c12 -22 3 -37 -26 -46 -27 -9 -46 19 -32 46 13 23 46 23 58 0z m335 -34 c7 -12 6 -21 -3 -32 -17 -20 -35 -20 -55 0 -22 21 -20 33 7 44 27 11 38 8 51 -12z m-377 -59 c16 -16 -5 -59 -29 -59 -22 0 -40 40 -26 58 13 15 40 16 55 1z m-37 -108 c0 -26 -16 -43 -36 -39 -25 4 -31 38 -9 54 21 15 45 8 45 -15z"/> <path d="M5211 4353 c0 -5 4 -17 9 -28 8 -18 9 -17 9 8 1 15 -3 27 -9 27 -5 0 -10 -3 -9 -7z"/> <path d="M4065 4324 l-30 -27 4 -406 3 -406 26 -22 c32 -26 93 -30 112 -8 7 8 18 15 25 15 6 0 30 13 51 28 21 16 46 31 54 35 17 9 38 22 95 58 22 14 67 41 100 59 33 18 67 38 75 45 8 6 22 15 30 19 8 3 29 15 45 26 17 11 37 23 45 27 34 15 92 67 106 95 15 28 14 34 -2 69 -15 35 -69 79 -95 79 -6 0 -35 17 -65 38 -31 20 -63 42 -72 47 -9 6 -35 22 -57 36 -22 14 -60 35 -85 48 -58 29 -76 40 -114 74 -17 15 -34 27 -38 27 -4 0 -28 14 -53 31 -27 18 -65 34 -88 36 -36 4 -47 1 -72 -23z m161 -68 c43 -25 105 -62 138 -83 77 -50 108 -69 186 -111 94 -51 155 -99 179 -143 l22 -38 -30 -33 c-27 -31 -127 -88 -181 -104 -14 -3 -37 -15 -52 -25 -14 -11 -30 -19 -36 -19 -5 0 -15 -7 -23 -16 -16 -19 -137 -83 -204 -107 -48 -17 -51 -17 -75 1 -36 28 -50 100 -54 287 -2 88 -5 212 -7 275 -3 122 6 160 40 160 10 0 53 -20 97 -44z"/> <path d="M1377 4198 c-16 -11 -33 -31 -38 -44 -6 -17 -16 -24 -35 -24 -37 0 -84 -50 -84 -90 0 -41 24 -82 58 -98 29 -13 203 -15 291 -3 56 8 76 24 88 70 9 36 -22 91 -51 91 -27 0 -56 24 -56 46 0 8 -15 28 -32 45 -40 36 -98 39 -141 7z"/> <path d="M11448 4073 c-2 -5 -2 -189 0 -410 l3 -401 79 0 c95 1 108 10 90 63 -8 23 -10 67 -6 128 4 51 3 127 -3 170 -5 47 -5 93 0 118 5 23 11 103 14 180 3 128 2 140 -15 149 -22 12 -157 14 -162 3z m131 -42 c12 -8 12 -20 2 -78 -7 -37 -17 -111 -22 -163 -12 -112 -14 -120 -32 -120 -11 0 -17 31 -26 133 -7 72 -13 146 -15 162 -6 51 9 75 46 75 18 0 39 -4 47 -9z"/> <path d="M9404 4035 c-10 -8 -10 -62 -2 -270 6 -156 6 -301 1 -362 -12 -144 -12 -144 89 -141 l83 3 0 115 0 115 77 2 76 1 52 -79 c28 -44 60 -98 71 -119 l21 -40 99 0 c82 0 99 3 99 15 0 9 -36 64 -80 122 -45 59 -79 113 -78 121 2 7 16 21 33 30 53 30 82 80 100 172 16 77 5 144 -31 201 -22 35 -82 89 -98 89 -5 0 -22 7 -39 15 -39 18 -452 27 -473 10z m440 -50 c11 -8 26 -15 33 -15 23 0 90 -54 107 -85 17 -34 17 -188 -1 -206 -6 -6 -26 -9 -44 -7 l-34 3 0 82 c-1 73 -3 85 -25 108 -49 52 -95 66 -209 63 -92 -3 -105 -5 -115 -23 -6 -11 -17 -24 -25 -29 -10 -6 -12 -30 -10 -95 4 -83 3 -86 -19 -89 -44 -7 -50 10 -51 147 0 71 -1 133 -2 138 -1 4 -1 11 0 16 0 4 85 7 189 7 149 -1 191 -4 206 -15z m-61 -111 c65 -33 77 -52 77 -119 0 -65 -18 -94 -65 -109 -36 -11 -200 -14 -211 -5 -11 9 -9 202 1 237 7 19 158 16 198 -4z m-268 -352 c-9 -9 -25 11 -25 31 1 21 1 21 15 -3 7 -14 12 -27 10 -28z"/> <path d="M5840 4033 c-1 -8 0 -736 0 -759 0 -8 29 -11 88 -10 l87 1 -3 106 c-3 81 -1 109 9 115 8 4 42 9 76 9 67 2 76 -3 104 -56 37 -70 102 -169 113 -169 6 -1 50 -3 99 -5 72 -4 87 -2 87 10 0 8 -37 63 -81 122 -45 59 -83 113 -86 119 -2 7 15 22 38 35 63 35 96 90 100 164 7 152 5 158 -63 228 -87 88 -123 97 -376 97 -106 0 -192 -3 -192 -7z m416 -164 c20 -12 37 -35 48 -63 15 -40 15 -48 2 -79 -8 -20 -23 -44 -35 -56 -25 -25 -95 -44 -135 -37 -17 3 -47 2 -65 -4 -56 -16 -61 -4 -61 135 0 67 2 124 5 127 3 3 51 3 108 0 76 -3 110 -9 133 -23z"/> <path d="M8097 4033 c-10 -9 -8 -76 2 -92 7 -11 29 -14 93 -11 46 1 101 3 123 4 l40 1 0 -335 0 -335 60 0 60 0 1 333 c1 183 3 335 6 337 2 2 55 0 118 -5 130 -11 132 -10 128 60 l-3 45 -311 3 c-171 1 -313 -1 -317 -5z"/> <path d="M3210 4002 c0 -8 11 -30 25 -48 14 -18 25 -35 25 -38 0 -3 14 -25 31 -51 33 -49 34 -72 4 -89 -11 -6 -36 -24 -57 -41 -20 -16 -63 -50 -97 -75 -34 -25 -78 -58 -100 -75 -21 -16 -49 -37 -61 -45 -12 -8 -32 -22 -44 -31 -11 -9 -47 -30 -78 -47 -31 -17 -94 -55 -140 -85 -46 -30 -93 -57 -105 -61 -13 -4 -23 -12 -23 -17 0 -5 -7 -9 -15 -9 -13 0 -71 -27 -170 -77 -16 -9 -48 -24 -70 -35 -22 -11 -48 -24 -57 -29 -10 -5 -23 -9 -29 -9 -6 0 -25 -6 -42 -14 -75 -31 -250 -68 -332 -69 -80 -1 -181 21 -227 50 -85 52 -134 160 -124 272 12 126 4 210 -20 218 -12 4 -41 -59 -78 -170 -21 -63 -26 -96 -26 -180 0 -102 20 -191 49 -220 6 -6 11 -15 11 -20 0 -13 58 -87 96 -122 29 -27 51 -39 157 -91 16 -8 38 -14 50 -14 12 0 44 -7 71 -15 64 -20 226 -19 290 0 27 8 68 15 90 15 23 1 52 7 66 15 14 8 39 14 55 15 17 0 39 6 50 14 11 7 38 16 60 20 22 4 45 11 50 15 6 4 38 18 73 31 34 12 65 27 68 31 3 5 12 9 21 9 17 0 130 55 238 115 33 19 79 43 103 55 95 46 398 239 455 290 36 31 45 31 61 0 19 -36 46 -124 46 -148 0 -23 27 -42 48 -35 6 3 12 11 12 19 0 9 12 41 26 72 51 113 67 148 95 205 16 31 29 64 29 72 0 8 4 15 10 15 5 0 13 12 16 26 4 15 19 49 34 78 15 28 35 74 45 101 11 28 22 52 25 55 3 3 14 18 24 34 32 50 14 55 -299 86 -55 6 -122 17 -150 24 -27 8 -98 16 -157 19 -91 3 -108 1 -108 -11z m320 -57 c41 -3 91 -10 110 -15 19 -6 70 -11 113 -13 42 -2 80 -7 84 -11 4 -3 -3 -20 -15 -36 -12 -16 -22 -33 -22 -39 0 -5 -29 -24 -65 -42 -36 -18 -65 -39 -65 -47 0 -9 6 -12 16 -8 9 3 27 9 40 12 22 6 24 3 24 -30 0 -20 -4 -36 -10 -36 -12 0 -50 -73 -50 -98 0 -11 -9 -31 -20 -45 -11 -14 -20 -30 -20 -36 0 -6 -16 -29 -36 -51 l-36 -40 -27 19 c-53 37 -127 29 -190 -20 -13 -10 -36 -19 -50 -19 -26 0 -71 -44 -71 -69 0 -9 -74 -62 -199 -143 -14 -9 -37 -17 -51 -17 -14 -1 -37 -14 -53 -30 -15 -16 -42 -33 -60 -36 -17 -4 -49 -16 -69 -26 -21 -11 -47 -19 -58 -19 -11 0 -38 -9 -60 -20 -22 -11 -51 -20 -67 -20 -25 0 -25 -1 -8 -13 17 -13 17 -15 -6 -30 -13 -10 -42 -17 -64 -17 -22 0 -49 -7 -59 -15 -26 -19 -87 -20 -80 -2 12 32 -71 54 -115 31 -14 -8 -34 -14 -43 -14 -10 0 -18 -4 -18 -10 0 -5 13 -10 29 -10 17 0 33 -5 36 -10 10 -16 -36 -49 -68 -50 -16 0 -37 -5 -48 -11 -26 -13 -56 -3 -64 22 -8 23 -25 16 -25 -12 0 -25 -22 -24 -45 1 -25 27 -62 25 -106 -6 -36 -24 -38 -25 -74 -10 -20 9 -42 13 -47 10 -6 -4 -23 8 -38 26 -18 22 -34 31 -44 27 -11 -4 -31 9 -61 39 -25 24 -45 49 -45 54 0 15 33 12 58 -6 37 -26 112 -32 209 -17 48 8 95 20 103 27 8 8 49 17 90 21 56 6 82 14 107 32 18 14 58 31 90 40 32 8 72 23 89 34 17 10 41 19 52 19 11 0 23 4 26 9 4 5 27 19 54 32 26 12 63 35 83 51 20 15 44 28 52 28 9 0 20 6 24 13 9 13 77 47 96 47 7 0 28 13 48 29 19 16 51 36 72 44 20 9 37 22 37 29 1 19 81 75 165 116 22 11 54 33 70 50 17 17 36 32 43 32 7 0 48 36 92 79 86 85 98 115 60 148 -11 10 -20 23 -20 29 0 6 -7 17 -15 24 -8 7 -15 19 -15 28 0 12 12 14 78 9 42 -4 111 -9 152 -12z m-1200 -1005 c0 -5 6 -10 14 -10 22 0 30 -19 11 -26 -9 -4 -24 1 -35 11 -24 22 -26 35 -5 35 8 0 15 -4 15 -10z"/> <path d="M3630 3720 c0 -6 -12 -16 -27 -22 -24 -9 -25 -12 -9 -16 11 -2 29 6 45 22 21 21 22 26 8 26 -9 0 -17 -5 -17 -10z"/> <path d="M3519 3646 c-20 -11 -76 -46 -124 -76 -48 -30 -96 -60 -107 -67 -12 -6 -23 -15 -27 -20 -3 -4 -25 -21 -48 -37 -24 -16 -43 -33 -43 -37 0 -17 33 -9 62 16 16 14 42 28 56 31 15 4 36 15 47 24 11 10 34 25 50 33 17 8 50 34 75 56 25 22 50 41 56 41 5 0 20 14 32 30 26 35 21 36 -29 6z"/> <path d="M3040 3338 c-30 -17 -56 -34 -58 -39 -2 -5 -10 -9 -18 -9 -8 0 -22 -9 -31 -20 -10 -11 -23 -20 -29 -20 -17 0 -74 -33 -74 -42 0 -14 28 -8 64 13 20 12 36 25 36 30 0 5 9 9 19 9 11 0 22 4 26 9 3 6 26 20 51 33 26 12 49 28 51 35 3 7 11 13 19 13 8 0 14 5 14 10 0 14 -8 12 -70 -22z"/> <path d="M2660 3120 c-8 -4 -26 -13 -40 -19 -14 -7 -38 -20 -55 -29 -29 -16 -29 -17 -7 -20 29 -4 80 15 110 41 33 30 28 48 -8 27z"/> <path d="M1975 3944 c-73 -21 -103 -30 -167 -47 -31 -9 -66 -20 -77 -26 -11 -6 -29 -11 -40 -11 -11 0 -35 -6 -53 -14 -18 -8 -52 -20 -76 -27 -59 -17 -66 -28 -51 -81 6 -24 18 -57 25 -75 8 -17 14 -39 14 -50 1 -10 7 -29 15 -43 8 -14 14 -35 15 -46 0 -21 20 -96 41 -159 6 -16 15 -48 20 -70 6 -22 16 -50 24 -62 13 -19 18 -20 47 -11 18 6 46 16 61 24 16 8 38 14 50 14 12 0 27 4 33 8 16 10 84 153 78 163 -6 10 -52 1 -70 -12 -11 -9 -104 -40 -157 -53 -25 -6 -29 -3 -45 36 -10 24 -26 72 -36 108 -65 237 -66 242 -60 252 3 4 14 8 24 8 10 0 31 6 47 14 42 21 100 40 203 67 25 6 59 17 75 24 58 24 99 35 106 27 3 -4 14 -37 24 -75 10 -37 23 -72 30 -77 16 -13 45 -2 45 16 0 19 -38 130 -56 166 -16 32 -20 32 -89 12z"/> <path d="M10365 3870 c-11 -5 -32 -9 -48 -9 -44 -1 -157 -87 -157 -119 0 -5 -7 -15 -15 -22 -8 -7 -15 -24 -15 -39 -1 -14 -7 -37 -15 -51 -20 -35 -18 -84 6 -156 22 -65 76 -139 113 -155 12 -5 28 -13 36 -18 63 -37 87 -43 170 -39 87 5 127 16 193 55 55 33 56 47 6 93 -46 41 -66 43 -103 11 -13 -12 -38 -16 -100 -16 -80 0 -81 0 -123 39 -43 39 -57 80 -30 89 6 2 28 0 48 -4 44 -10 355 -6 366 5 4 4 6 40 4 81 -3 80 -22 129 -68 177 -60 63 -205 105 -268 78z m165 -65 c7 -8 17 -15 23 -15 16 0 57 -50 87 -105 22 -39 23 -47 10 -55 -27 -18 -55 -7 -58 22 -7 58 -112 128 -191 128 -55 0 -101 -30 -136 -89 -31 -53 -48 -60 -80 -37 -18 13 -18 14 3 27 12 8 22 21 22 30 0 22 37 59 76 75 18 8 35 18 39 24 3 6 47 10 99 10 71 0 97 -4 106 -15z m-60 -85 c41 -21 85 -73 77 -93 -3 -9 -43 -12 -138 -12 -122 0 -134 2 -137 18 -7 35 87 105 141 107 10 0 35 -9 57 -20z"/> <path d="M10990 3866 c-25 -6 -58 -18 -75 -26 -41 -21 -115 -99 -121 -130 -3 -14 -10 -34 -16 -44 -20 -37 -22 -132 -4 -188 44 -135 141 -207 294 -215 79 -5 145 12 215 55 53 32 55 46 12 84 -58 51 -64 53 -99 27 -26 -20 -43 -24 -107 -24 -60 0 -79 4 -94 18 -10 10 -28 25 -41 34 -16 10 -24 25 -24 42 l0 27 193 -2 c106 -2 197 -3 202 -4 31 -6 35 2 35 68 0 44 -5 75 -15 88 -8 10 -15 28 -15 40 0 22 -86 114 -106 114 -6 0 -17 6 -23 14 -10 12 -43 20 -131 30 -19 3 -55 -1 -80 -8z m200 -63 c39 -19 66 -62 56 -89 -5 -13 -9 -13 -33 4 -62 42 -114 62 -164 62 -47 0 -54 -4 -100 -47 -35 -35 -49 -56 -49 -75 0 -21 -6 -29 -24 -34 -14 -3 -30 -3 -35 1 -14 8 -14 62 0 70 5 4 14 17 19 29 4 12 30 33 57 47 26 13 50 27 53 30 21 25 170 26 220 2z m-59 -84 c35 -25 84 -87 76 -96 -12 -11 -276 -11 -280 1 -6 16 8 49 27 65 61 51 131 63 177 30z m159 -84 c0 -16 -27 -27 -36 -14 -3 5 -3 16 0 24 6 17 36 9 36 -10z"/> <path d="M11885 3861 c-107 -16 -162 -72 -171 -173 -7 -77 5 -112 48 -134 33 -17 56 -23 178 -48 96 -20 120 -31 120 -60 0 -32 -18 -45 -72 -52 -50 -7 -153 11 -183 32 -40 28 -63 18 -91 -42 -25 -53 -25 -56 -8 -70 11 -7 30 -16 44 -19 14 -3 45 -12 70 -20 61 -20 189 -19 237 1 127 54 146 77 147 175 1 62 -2 70 -29 99 -39 41 -75 56 -160 64 -96 10 -145 32 -145 66 0 19 9 30 35 44 39 21 74 18 167 -12 66 -22 72 -19 104 53 10 22 20 43 22 47 2 4 -14 16 -35 26 -44 23 -196 35 -278 23z m207 -58 c10 -9 18 -20 18 -24 0 -5 -42 -6 -93 -2 -78 5 -95 3 -109 -11 -9 -9 -21 -16 -26 -16 -15 0 -50 -44 -57 -72 -9 -34 -15 -35 -44 -5 l-22 24 20 46 c30 69 82 88 226 80 45 -2 75 -9 87 -20z"/> <path d="M6634 3837 c-76 -41 -76 -41 -41 -102 33 -57 46 -65 66 -41 7 8 26 18 42 21 16 4 31 11 34 16 4 5 29 9 56 9 82 0 156 -62 136 -113 -4 -11 -27 -13 -106 -9 -82 4 -110 1 -149 -13 -77 -29 -109 -59 -122 -114 -29 -123 70 -231 213 -231 55 0 70 4 105 30 50 36 69 38 74 8 3 -20 11 -24 67 -31 36 -4 70 -6 77 -3 15 6 9 328 -8 421 -13 69 -31 97 -95 142 l-47 33 -130 -1 c-114 0 -136 -3 -172 -22z m291 -357 c0 -40 -3 -46 -40 -72 -47 -32 -112 -37 -150 -12 -20 13 -25 25 -25 55 0 34 5 42 33 59 26 17 46 20 107 18 l75 -3 0 -45z"/> <path d="M7130 3841 c0 -18 5 -32 44 -109 9 -19 16 -41 16 -51 0 -9 7 -26 15 -37 8 -10 15 -31 15 -45 0 -14 7 -34 15 -45 8 -10 15 -31 15 -45 0 -14 7 -34 15 -45 8 -10 15 -28 15 -39 0 -11 7 -33 15 -49 8 -15 15 -38 15 -50 0 -12 7 -31 14 -42 13 -18 24 -21 92 -19 83 2 104 15 104 62 0 12 6 37 14 55 24 57 46 132 46 155 0 12 4 24 9 27 4 3 11 20 15 37 8 42 38 36 48 -11 12 -59 26 -114 37 -147 28 -84 33 -100 41 -131 5 -19 10 -36 13 -38 3 -3 40 -6 82 -8 77 -2 78 -2 96 28 11 17 19 40 19 51 0 11 13 52 30 90 16 39 30 77 30 86 0 9 7 30 15 45 8 16 15 38 15 49 0 11 7 29 15 39 8 11 15 28 15 39 0 10 6 31 14 45 21 43 46 102 46 112 0 15 -157 13 -166 -2 -4 -6 -11 -28 -15 -47 -8 -37 -30 -113 -48 -166 -5 -16 -15 -50 -21 -75 -21 -83 -25 -94 -35 -93 -12 0 -20 17 -35 73 -14 51 -28 98 -69 225 l-29 90 -77 0 -78 0 -13 -55 c-8 -30 -21 -68 -28 -85 -13 -27 -20 -50 -57 -185 -18 -63 -29 -77 -46 -54 -7 10 -13 30 -13 45 0 16 -4 38 -9 51 -8 20 -60 188 -79 258 -7 24 -12 25 -90 28 -76 3 -82 1 -82 -17z"/> <path d="M8875 3842 c-90 -51 -138 -108 -162 -192 -22 -81 -11 -189 24 -231 7 -8 13 -20 13 -25 0 -22 98 -97 150 -115 80 -28 147 -25 223 11 75 35 118 75 149 138 19 39 23 63 23 137 -1 133 -37 195 -156 270 -34 22 -49 25 -136 24 -73 0 -106 -5 -128 -17z m197 -92 c125 -55 157 -227 60 -326 -19 -19 -45 -40 -59 -45 -27 -10 -106 -11 -141 -1 -56 17 -122 118 -122 187 0 73 59 158 130 189 47 21 79 20 132 -4z"/> <path d="M1280 3770 c-11 -7 -11 -14 -3 -32 6 -14 7 -32 1 -47 -16 -45 6 -66 37 -35 12 13 19 14 28 5 13 -13 57 -15 57 -1 0 5 -5 21 -12 35 -9 19 -9 28 0 37 25 25 14 41 -26 35 -21 -2 -45 -1 -53 4 -8 4 -21 4 -29 -1z"/> <path d="M1682 3761 c-74 -26 -77 -31 -53 -84 12 -25 21 -57 21 -71 0 -36 30 -35 31 2 2 29 5 59 7 80 3 20 28 14 75 -18 25 -16 57 -30 71 -30 19 0 29 -7 37 -27 23 -62 -26 -72 -82 -17 -39 38 -59 38 -59 -1 0 -13 -11 -36 -25 -51 -54 -58 -14 -164 41 -109 9 8 27 15 42 15 15 1 38 7 52 15 14 8 44 14 68 15 37 0 44 4 53 28 6 15 15 35 20 44 5 10 9 27 9 37 0 11 5 23 11 26 5 4 14 17 20 28 5 12 15 30 21 40 11 16 7 23 -32 57 -25 22 -50 40 -56 40 -6 0 -17 -19 -23 -42 -17 -56 -28 -68 -62 -68 -28 0 -79 42 -79 66 0 13 -33 44 -46 44 -5 -1 -33 -9 -62 -19z"/> <path d="M2579 3489 c-11 -11 -27 -36 -35 -54 -7 -19 -18 -36 -24 -40 -5 -3 -10 -15 -10 -26 0 -23 32 -26 50 -4 7 8 18 15 25 15 7 0 17 6 23 13 6 6 33 21 61 32 64 25 63 43 -4 67 -62 22 -61 22 -86 -3z"/> <path d="M4362 3273 c-6 -11 -7 -88 -2 -188 4 -97 3 -215 -3 -274 -8 -90 -7 -105 7 -119 12 -12 21 -14 32 -7 14 9 16 46 16 295 0 157 -1 291 -1 298 -1 18 -39 15 -49 -5z"/> <path d="M4559 3208 c-7 -20 -4 -436 4 -445 5 -7 18 -13 28 -13 11 0 19 6 20 13 0 6 1 109 1 227 l1 215 -26 3 c-15 2 -27 2 -28 0z"/> <path d="M3255 3166 c-17 -13 -50 -35 -73 -48 -51 -27 -64 -35 -117 -69 -59 -38 -89 -53 -207 -108 -107 -50 -108 -50 -108 -85 0 -31 4 -36 28 -41 15 -4 36 -11 47 -17 11 -6 36 -15 55 -19 19 -4 60 -17 90 -29 114 -44 136 -52 160 -57 14 -3 33 -12 42 -20 21 -18 58 -2 58 26 0 10 7 35 15 54 8 20 15 49 15 65 0 15 4 32 8 37 12 13 52 137 52 159 0 9 6 27 14 39 7 12 16 41 20 64 5 36 3 44 -16 57 -31 22 -48 20 -83 -8z m-88 -198 c25 -24 32 -80 11 -98 -49 -41 -88 -58 -115 -51 -19 5 -27 13 -25 25 2 9 -4 19 -13 22 -8 3 -15 14 -15 24 0 19 44 60 65 60 6 0 20 9 30 20 23 25 33 25 62 -2z"/> <path d="M4265 3180 c-4 -6 -7 -97 -8 -202 -1 -173 1 -191 17 -200 11 -6 22 -6 27 -1 5 5 8 96 7 209 -3 176 -5 199 -20 202 -9 2 -19 -2 -23 -8z"/> <path d="M4060 3145 c-6 -16 -6 -44 1 -77 5 -30 6 -83 2 -123 -13 -123 -3 -156 40 -133 18 9 19 18 15 107 -3 53 -2 123 3 156 6 49 5 63 -8 77 -22 25 -42 22 -53 -7z"/> <path d="M4672 3108 c-13 -13 -18 -222 -6 -252 8 -21 31 -20 42 2 9 20 8 235 -2 251 -9 14 -19 14 -34 -1z"/> <path d="M4465 3098 c-3 -8 -4 -63 -3 -123 3 -110 11 -131 39 -102 11 10 13 38 9 123 -4 93 -7 109 -23 112 -9 2 -19 -3 -22 -10z"/> <path d="M3957 3083 c-2 -5 -4 -47 -3 -95 1 -67 5 -91 18 -104 30 -30 38 -7 38 102 0 104 0 104 -24 104 -14 0 -27 -3 -29 -7z"/> <path d="M4164 3047 c-3 -8 -4 -43 -2 -78 3 -61 4 -64 28 -64 24 0 25 2 25 75 0 70 -1 75 -23 78 -12 2 -24 -3 -28 -11z"/> <path d="M4764 3047 c-9 -25 0 -140 12 -144 7 -2 19 4 28 13 13 12 16 31 14 78 -3 55 -5 61 -26 64 -12 2 -24 -3 -28 -11z"/> <path d="M3825 3021 c-48 -6 -50 -7 -50 -36 0 -30 1 -30 58 -33 62 -3 87 8 87 39 0 15 -31 43 -42 37 -2 0 -25 -4 -53 -7z"/> <path d="M4859 3004 c-20 -24 1 -49 41 -49 36 0 57 22 47 49 -8 21 -70 22 -88 0z"/> <path d="M2626 2825 c-11 -8 -30 -15 -42 -15 -53 0 -112 -101 -68 -116 49 -17 94 -39 94 -46 0 -4 6 -8 13 -8 8 0 24 -9 37 -20 13 -11 29 -20 35 -20 7 0 18 -7 25 -15 7 -8 19 -15 27 -15 8 0 21 -7 29 -15 9 -8 26 -15 40 -15 22 0 24 4 24 53 0 58 -15 123 -31 133 -6 3 -30 -1 -55 -11 -24 -9 -47 -14 -52 -11 -5 3 -12 31 -15 62 -7 70 -24 87 -61 59z"/> <path d="M2410 2750 c-39 -54 -21 -96 50 -124 8 -4 29 -15 45 -25 17 -11 46 -28 65 -38 77 -41 177 -98 212 -120 69 -43 77 -38 146 100 65 129 73 157 45 157 -28 0 -37 -11 -62 -69 -27 -63 -79 -151 -91 -151 -4 0 -13 7 -20 15 -7 8 -17 15 -23 15 -12 0 -208 108 -279 154 -51 33 -58 49 -32 77 9 10 13 23 9 28 -12 20 -44 11 -65 -19z"/> <path d="M2156 2663 c-12 -12 -6 -54 9 -59 20 -8 19 -21 -4 -51 -11 -13 -17 -31 -14 -39 7 -18 38 -18 57 1 8 8 17 15 21 15 4 0 13 -7 21 -15 9 -8 24 -15 35 -15 30 0 34 28 9 55 -22 23 -22 26 -7 43 25 27 22 62 -4 62 -12 0 -28 -8 -34 -17 -12 -16 -15 -16 -32 -2 -22 20 -49 30 -57 22z"/> </g> </svg> 